<svg class="r-ff-icon" xmlns="http://www.w3.org/2000/svg" viewBox="0 0 23.5 23.5"><path d="M11.75 23.25a11.5 11.5 0 1 0-11.5-11.5 11.5 11.5 0 0 0 11.5 11.5z" fill="#f1f1f1" stroke-miterlimit="10"></path><path d="M6.02 13.462h6.108l-.845.942H6.02z" fill="#d44927"></path><g fill-rule="evenodd"><path d="M14.987 17.816l-1.657-4.419 1.202-1.592 2.372 6.011zm-3.411-9l.91 2.404 1.17-1.56-1.463-3.768a1.105 1.105 0 0 0-.91-.618.942.942 0 0 0-.877.618l-2.86 7.213H9.4l1.624-4.29a.325.325 0 0 1 .26-.162h.033a.26.26 0 0 1 .26.163zm-2.827 5.978l-1.137 3.022H5.695l1.202-3.022z" fill="#222d60"></path><path d="M17.652 5.014a.585.585 0 0 1 .812-.097.52.52 0 0 1 .097.78l-5.198 7.018q-.065.097-.098.097l-1.04.65c-.065.065-.162 0-.13-.097l.293-1.17c.032-.065.032-.097.065-.13l4.711-6.368-.065-.065c-.032-.033-.097 0-.13.032l-1.527 2.047c.033.065.033.163-.032.195l-.26.358a.162.162 0 0 1-.26.065.195.195 0 0 1-.065-.228h.032l.163-.227.097-.163 1.722-2.34a.357.357 0 0 1 .499-.08l.021.016h.098z" fill="#d44927"></path></g></svg>