<svg xmlns="http://www.w3.org/2000/svg" width="130px" xmlns:xlink="http://www.w3.org/1999/xlink" version="1.1" id="Layer_1" x="0px" y="0px" viewBox="0 0 528.82 137.52" style="enable-background:new 0 0 528.82 137.52;" xml:space="preserve">
<style type="text/css">
	.st0{fill-rule:evenodd;clip-rule:evenodd;fill:none;}
	.st1{fill:#EFEFF7;}
	.st2{fill:#6966FB;}
</style>
<g>
	<rect x="162.11" y="23.8" class="st0" width="367.72" height="92.98"></rect>
	<path class="st1" d="M186.63,23.8l22.15,69.62h0.85l22.19-69.62h21.48l-31.59,91.64h-24.97L165.1,23.8H186.63z"></path>
	<path class="st1" d="M270.9,116.73c-4.38,0-8.29-0.77-11.72-2.3s-6.14-3.82-8.12-6.85c-1.98-3.03-2.98-6.81-2.98-11.34   c0-3.82,0.7-7.02,2.1-9.62c1.4-2.59,3.31-4.68,5.73-6.26c2.42-1.58,5.17-2.77,8.25-3.58c3.09-0.81,6.33-1.37,9.73-1.7   c4-0.42,7.22-0.81,9.66-1.19c2.45-0.37,4.22-0.93,5.33-1.68c1.1-0.75,1.66-1.85,1.66-3.31v-0.27c0-2.83-0.89-5.03-2.66-6.58   c-1.78-1.55-4.29-2.33-7.54-2.33c-3.43,0-6.16,0.75-8.19,2.26c-2.03,1.51-3.37,3.39-4.03,5.66l-17.63-1.43   c0.89-4.18,2.65-7.79,5.28-10.85s6.02-5.41,10.18-7.07s8.99-2.48,14.47-2.48c3.82,0,7.48,0.45,10.98,1.34   c3.5,0.9,6.62,2.28,9.35,4.16c2.73,1.88,4.88,4.29,6.47,7.23c1.58,2.94,2.37,6.45,2.37,10.54v46.36h-18.08v-9.53h-0.54   c-1.1,2.15-2.58,4.03-4.43,5.66s-4.07,2.89-6.67,3.8C277.29,116.28,274.3,116.73,270.9,116.73z M276.35,103.58   c2.8,0,5.28-0.56,7.43-1.68c2.15-1.12,3.83-2.63,5.06-4.54c1.22-1.91,1.83-4.07,1.83-6.49v-7.29c-0.6,0.39-1.41,0.74-2.44,1.05   s-2.19,0.6-3.47,0.85c-1.28,0.25-2.57,0.48-3.85,0.67c-1.28,0.19-2.45,0.37-3.49,0.51c-2.24,0.33-4.19,0.85-5.86,1.57   c-1.67,0.72-2.97,1.68-3.89,2.89c-0.92,1.21-1.39,2.71-1.39,4.5c0,2.59,0.95,4.57,2.84,5.93   C271.02,102.9,273.43,103.58,276.35,103.58z"></path>
	<path class="st1" d="M363.44,86.17V46.71h19.06v68.73h-18.3v-12.48h-0.72c-1.55,4.03-4.12,7.26-7.72,9.71   c-3.59,2.45-7.97,3.67-13.13,3.67c-4.59,0-8.64-1.04-12.12-3.13c-3.49-2.09-6.21-5.06-8.17-8.9c-1.95-3.85-2.95-8.46-2.98-13.83   V46.71h19.06v40.36c0.03,4.06,1.12,7.26,3.27,9.62c2.15,2.36,5.03,3.54,8.64,3.54c2.3,0,4.44-0.53,6.44-1.59   c2-1.06,3.62-2.63,4.85-4.72C362.87,91.82,363.47,89.24,363.44,86.17z"></path>
	<path class="st1" d="M411.74,23.8v91.64h-19.06V23.8H411.74z"></path>
	<path class="st1" d="M458.46,46.71v14.32h-41.39V46.71H458.46z M426.47,30.24h19.06v64.07c0,1.76,0.27,3.12,0.81,4.09   c0.54,0.97,1.29,1.65,2.26,2.04c0.97,0.39,2.09,0.58,3.38,0.58c0.9,0,1.79-0.08,2.68-0.25c0.9-0.16,1.58-0.29,2.06-0.38l3,14.18   c-0.96,0.3-2.3,0.65-4.03,1.05c-1.73,0.4-3.83,0.65-6.31,0.74c-4.59,0.18-8.61-0.43-12.06-1.83c-3.45-1.4-6.12-3.58-8.03-6.53   s-2.85-6.68-2.82-11.19V30.24z"></path>
	<path class="st1" d="M522.06,66.31l-17.45,1.07c-0.3-1.49-0.94-2.84-1.92-4.05c-0.98-1.21-2.28-2.18-3.87-2.91   c-1.6-0.73-3.5-1.1-5.7-1.1c-2.95,0-5.44,0.62-7.47,1.86c-2.03,1.24-3.04,2.89-3.04,4.94c0,1.64,0.66,3.03,1.97,4.16   c1.31,1.13,3.56,2.04,6.76,2.73l12.44,2.51c6.68,1.37,11.66,3.58,14.95,6.62c3.28,3.04,4.92,7.04,4.92,11.99   c0,4.5-1.32,8.46-3.96,11.86c-2.64,3.4-6.25,6.05-10.83,7.94c-4.58,1.89-9.85,2.84-15.82,2.84c-9.1,0-16.34-1.9-21.72-5.71   c-5.38-3.8-8.54-8.99-9.46-15.55l18.75-0.98c0.57,2.77,1.94,4.88,4.12,6.33c2.18,1.45,4.97,2.17,8.37,2.17   c3.34,0,6.03-0.65,8.08-1.95c2.04-1.3,3.08-2.98,3.11-5.03c-0.03-1.73-0.76-3.15-2.19-4.27c-1.43-1.12-3.64-1.98-6.62-2.57   l-11.9-2.37c-6.71-1.34-11.7-3.67-14.97-6.98c-3.27-3.31-4.9-7.53-4.9-12.66c0-4.41,1.2-8.22,3.6-11.41   c2.4-3.19,5.79-5.65,10.16-7.38c4.37-1.73,9.49-2.59,15.37-2.59c8.68,0,15.52,1.83,20.52,5.5   C518.31,54.98,521.23,59.98,522.06,66.31z"></path>
</g>
<script xmlns="" src="chrome-extension://kmmolakhbgdlpkjkcjkebenjheonagdm/AlgoSigner.min.js" type="text/javascript"></script>
<path class="st2" d="M73.07,70.42c-1.62,0.32-3.25,0.6-4.87,0.85c-1.62,0.25-3.1,0.46-4.42,0.65c-2.55,0.34-5.04,1-7.42,1.98  c-1.93,0.77-3.63,2.03-4.93,3.65c-1.21,1.65-1.83,3.65-1.76,5.69c0,3.28,1.2,5.78,3.6,7.5c2.4,1.72,5.44,2.58,9.14,2.58  c3.26,0.07,6.48-0.66,9.4-2.12c2.6-1.31,4.81-3.3,6.4-5.75c1.56-2.45,2.37-5.31,2.32-8.21v-9.23c-0.96,0.58-2,1.03-3.09,1.33  C76.02,69.78,74.55,70.14,73.07,70.42z"></path>
<path class="st2" d="M69.83,4.34c-35.9,0-65,29.1-65,65s29.1,65,65,65s65-29.1,65-65l0,0C134.83,33.44,105.73,4.34,69.83,4.34z   M104.5,108.33H81.62V96.27h-0.68c-1.4,2.72-3.3,5.15-5.61,7.16c-2.47,2.13-5.34,3.77-8.44,4.81c-3.67,1.21-7.52,1.79-11.38,1.73  c-5.1,0.09-10.15-0.9-14.83-2.92c-4.2-1.82-7.77-4.83-10.28-8.66c-2.51-3.83-3.77-8.61-3.77-14.35c0-4.83,0.89-8.89,2.66-12.17  c1.71-3.21,4.2-5.94,7.25-7.93c3.21-2.07,6.74-3.6,10.45-4.53c4.04-1.04,8.16-1.76,12.31-2.15c5.06-0.53,9.13-1.03,12.23-1.5  c3.09-0.47,5.34-1.18,6.74-2.12c1.39-0.93,2.19-2.52,2.09-4.19v-0.34c0-3.59-1.12-6.36-3.37-8.32c-2.25-1.96-5.43-2.94-9.54-2.94  c-4.34,0-7.8,0.95-10.36,2.86c-2.45,1.75-4.25,4.27-5.1,7.16L29.7,46.05c1.03-5.07,3.33-9.79,6.68-13.73  c3.5-3.99,7.92-7.06,12.88-8.95c5.27-2.1,11.37-3.14,18.32-3.14c4.69-0.02,9.36,0.55,13.9,1.7c4.23,1.04,8.23,2.82,11.83,5.27  c3.42,2.34,6.23,5.48,8.18,9.14c2,3.72,3,8.16,3,13.33L104.5,108.33z"></path>
</svg>