<svg id="Layer_1" data-name="Layer 1" xmlns="http://www.w3.org/2000/svg" viewBox="0 0 193.41641 75.72656" width="90px" height="35px"><path d="M36.40957,25.2168,24.205,60.126H13.2958L1.09121,25.2168H11.31875l7.25,24.97754H18.932L26.15957,25.2168Z" fill="#fff"></path><path d="M50.78457,60.78516A14.42536,14.42536,0,0,1,44.83,59.61426a9.406,9.406,0,0,1-4.125-3.47656A10.29979,10.29979,0,0,1,39.19326,50.376a10.17557,10.17557,0,0,1,1.06836-4.88672,8.65617,8.65617,0,0,1,2.90918-3.18164,14.0992,14.0992,0,0,1,4.19336-1.81836A31.59509,31.59509,0,0,1,52.307,39.626q3.04542-.31788,4.90918-.60254a6.85829,6.85829,0,0,0,2.70459-.85156,1.89869,1.89869,0,0,0,.84082-1.68262v-.13574a4.20234,4.20234,0,0,0-1.352-3.34082A5.63739,5.63739,0,0,0,55.58,31.83008a6.81928,6.81928,0,0,0-4.15918,1.14844,5.38161,5.38161,0,0,0-2.04541,2.875L40.4208,35.126a12.25045,12.25045,0,0,1,2.68164-5.51172,13.0099,13.0099,0,0,1,5.17041-3.59082,19.801,19.801,0,0,1,7.35254-1.26074,22.44987,22.44987,0,0,1,5.57959.68164,14.70775,14.70775,0,0,1,4.74951,2.11328,10.35154,10.35154,0,0,1,3.28418,3.6709,11.14792,11.14792,0,0,1,1.2041,5.35156V60.126H61.26162V55.28516h-.27246a9.72892,9.72892,0,0,1-2.25,2.875,10.14235,10.14235,0,0,1-3.38672,1.93164A13.79107,13.79107,0,0,1,50.78457,60.78516ZM53.557,54.10352A8.04915,8.04915,0,0,0,57.33,53.251a6.59717,6.59717,0,0,0,2.56787-2.30664,5.97933,5.97933,0,0,0,.93213-3.2959v-3.7041a4.94324,4.94324,0,0,1-1.23877.53418q-.78442.23877-1.76123.43164-.97777.19335-1.95459.34082-.97778.14795-1.773.26172a12.0029,12.0029,0,0,0-2.977.79492,4.8142,4.8142,0,0,0-1.97754,1.46582,3.64855,3.64855,0,0,0-.70459,2.28418,3.47264,3.47264,0,0,0,1.44336,3.01172A6.14692,6.14692,0,0,0,53.557,54.10352Z" fill="#fff"></path><path d="M100.79434,45.2627V25.2168H110.476V60.126h-9.29492V53.78516h-.36329a10.33569,10.33569,0,0,1-3.92089,4.93164,11.58,11.58,0,0,1-6.6709,1.86328,11.75246,11.75246,0,0,1-6.15821-1.59082,10.84823,10.84823,0,0,1-4.14843-4.52246,15.53932,15.53932,0,0,1-1.51075-7.02246V25.2168h9.68164v20.5a7.06015,7.06015,0,0,0,1.65918,4.88672,5.64227,5.64227,0,0,0,4.38575,1.79492,6.88625,6.88625,0,0,0,3.27343-.80664,6.239,6.239,0,0,0,2.46582-2.39746A7.44948,7.44948,0,0,0,100.79434,45.2627Z" fill="#fff"></path><path d="M128.32754,13.58008V60.126H118.6459V13.58008Z" fill="#fff"></path><path d="M155.06484,25.2168v7.27246H134.04238V25.2168Zm-16.25-8.36328h9.68164V49.39844a4.3452,4.3452,0,0,0,.40918,2.08008,2.24035,2.24035,0,0,0,1.14747,1.03418,4.61246,4.61246,0,0,0,1.71582.29492,7.49616,7.49616,0,0,0,1.36425-.125q.68117-.12452,1.04493-.19336l1.52343,7.20508q-.728.227-2.0459.53418a17.17267,17.17267,0,0,1-3.2041.375,14.63775,14.63775,0,0,1-6.125-.93164,8.56375,8.56375,0,0,1-4.08008-3.31836,10.14254,10.14254,0,0,1-1.43164-5.68164Z" fill="#fff"></path><path d="M190.37148,35.17188l-8.86425.54492a4.65445,4.65445,0,0,0-.97657-2.05664,5.383,5.383,0,0,0-1.96679-1.47754,6.91486,6.91486,0,0,0-2.89746-.55664,7.15627,7.15627,0,0,0-3.79493.94336,2.84387,2.84387,0,0,0-1.54589,2.51074,2.68973,2.68973,0,0,0,1,2.11426,7.9237,7.9237,0,0,0,3.43164,1.38574l6.31836,1.27344q5.09033,1.04589,7.59082,3.36328a7.9171,7.9171,0,0,1,2.5,6.09082,9.54011,9.54011,0,0,1-2.01075,6.02246,13.14176,13.14176,0,0,1-5.5,4.03418,20.887,20.887,0,0,1-8.03418,1.44336q-6.9331,0-11.03417-2.89746a11.19146,11.19146,0,0,1-4.80665-7.89746l9.52247-.5a4.8475,4.8475,0,0,0,2.09082,3.21582,8.87465,8.87465,0,0,0,8.35253.11328,3.00279,3.00279,0,0,0,1.57911-2.55664,2.70706,2.70706,0,0,0-1.11328-2.1709,8.13408,8.13408,0,0,0-3.36426-1.30664l-6.04492-1.2041q-5.11377-1.02246-7.60254-3.5459a8.7736,8.7736,0,0,1-2.48828-6.43164,9.36828,9.36828,0,0,1,1.8291-5.7959,11.61271,11.61271,0,0,1,5.15918-3.75,21.15945,21.15945,0,0,1,7.80664-1.31738q6.61377,0,10.4209,2.79492A10.81451,10.81451,0,0,1,190.37148,35.17188Z" fill="#fff"></path></svg>