<?xml version="1.0" standalone="no"?>
<!DOCTYPE svg PUBLIC "-//W3C//DTD SVG 20010904//EN"
 "http://www.w3.org/TR/2001/REC-SVG-20010904/DTD/svg10.dtd">
<svg version="1.0" xmlns="http://www.w3.org/2000/svg"
 width="700.000000pt" height="700.000000pt" viewBox="0 0 700.000000 700.000000"
 preserveAspectRatio="xMidYMid meet">
<metadata>
Created by potrace 1.14, written by Peter Selinger 2001-2017
</metadata>
<g transform="translate(0.000000,700.000000) scale(0.100000,-0.100000)"
fill="#000000" stroke="none">
<path d="M3407 6843 c-1 0 -54 -4 -117 -8 -129 -7 -158 -9 -215 -19 -22 -3
-59 -8 -83 -11 -24 -3 -53 -7 -65 -10 -12 -3 -33 -7 -47 -9 -229 -39 -570
-149 -807 -261 -772 -366 -1362 -993 -1688 -1795 -15 -36 -28 -72 -30 -80 -3
-8 -14 -42 -26 -75 -76 -217 -143 -526 -166 -765 -16 -168 -9 -575 12 -730 3
-19 8 -55 11 -80 3 -25 9 -61 14 -80 5 -19 11 -53 14 -75 3 -22 21 -101 40
-175 186 -719 587 -1338 1161 -1795 308 -245 659 -434 1042 -560 151 -51 385
-107 498 -121 22 -3 46 -7 53 -9 7 -3 40 -7 75 -11 34 -3 73 -8 87 -11 14 -3
144 -7 290 -8 288 -3 398 6 655 50 24 4 65 13 95 20 3 1 32 7 65 15 33 7 65
15 70 16 6 1 57 17 115 34 377 114 750 303 1063 541 131 99 197 158 348 308
261 262 452 528 624 871 36 70 65 131 65 134 0 4 9 25 20 49 29 64 84 213 109
297 13 41 29 95 36 120 24 79 56 229 71 325 3 22 7 42 9 45 2 3 6 37 10 75 4
39 9 79 11 90 22 116 22 545 0 710 -3 17 -7 50 -10 75 -26 198 -64 374 -127
575 -121 385 -316 751 -577 1080 -97 121 -346 379 -457 471 -208 174 -484 353
-692 449 -43 19 -86 40 -95 45 -70 39 -356 140 -533 188 -167 46 -426 86 -625
98 -106 6 -299 11 -303 7z m218 -827 c83 -7 345 -45 356 -51 3 -2 21 -7 39
-10 19 -3 67 -15 106 -25 575 -154 984 -527 1104 -1005 30 -117 37 -159 46
-270 9 -97 9 -3153 1 -3162 -5 -4 -1114 -8 -1167 -3 -3 0 -5 134 -5 298 1 163
-1 303 -3 310 -9 26 -32 10 -62 -43 -204 -356 -564 -578 -1035 -639 -101 -13
-403 -14 -485 -2 -138 21 -177 28 -265 51 -309 81 -544 224 -714 435 -20 25
-39 47 -42 50 -13 12 -83 136 -114 204 -50 108 -89 258 -102 396 -9 97 -9 296
1 385 55 505 365 855 919 1036 109 35 288 80 382 95 22 3 42 7 45 9 3 2 33 7
65 10 33 4 69 9 80 11 27 5 139 18 250 29 55 5 136 15 175 20 14 2 69 9 124
15 54 7 106 13 116 15 9 2 41 6 71 10 30 3 61 8 69 10 8 3 34 7 56 10 69 8
216 54 269 84 59 33 110 95 126 154 16 58 5 217 -20 298 -75 239 -286 368
-611 372 -201 3 -310 -16 -436 -73 -164 -74 -304 -220 -363 -378 l-24 -63 -36
5 c-20 3 -72 8 -116 11 -44 3 -100 8 -125 10 -44 4 -120 10 -250 20 -36 3 -90
7 -120 10 -30 2 -91 7 -135 10 -44 4 -96 8 -115 10 -19 2 -75 7 -125 11 -107
8 -113 9 -120 15 -9 9 45 191 82 279 134 314 340 555 633 742 154 98 443 210
625 242 17 3 41 8 55 11 14 3 57 10 95 16 39 6 81 12 94 14 13 2 72 7 130 11
58 3 107 7 108 8 5 4 297 -2 368 -8z"/>
<path d="M4003 3540 c-54 -32 -316 -102 -463 -124 -19 -3 -53 -8 -75 -11 -22
-3 -51 -8 -65 -10 -14 -3 -43 -7 -65 -10 -22 -4 -65 -10 -95 -15 -30 -5 -80
-12 -110 -15 -30 -4 -58 -9 -62 -12 -5 -2 -17 -6 -27 -8 -187 -36 -384 -137
-477 -244 -63 -73 -102 -192 -102 -313 1 -233 122 -392 358 -472 105 -35 154
-41 325 -40 156 1 227 13 362 64 218 81 397 251 481 452 53 127 61 192 62 500
0 153 -3 278 -7 277 -5 0 -22 -9 -40 -19z"/>
</g>
</svg>
