<svg id="Layer_1" data-name="Layer 1" xmlns="http://www.w3.org/2000/svg" viewBox="0 0 1056.03636 261.41818"><path d="M71.63405,208.58675a47.11377,47.11377,0,0,1-19.44531-3.82226A30.72737,30.72737,0,0,1,38.718,193.409q-4.93651-7.53222-4.93554-18.81445,0-9.49952,3.48828-15.957a28.24639,28.24639,0,0,1,9.5-10.39063,46.02956,46.02956,0,0,1,13.69336-5.9375,103.18224,103.18224,0,0,1,16.14258-2.82031q9.94482-1.03857,16.03125-1.9668,6.085-.92724,8.832-2.7832a6.19829,6.19829,0,0,0,2.74609-5.49219v-.44531q0-7.0503-4.416-10.91016-4.41651-3.85839-12.50586-3.85937-8.53565,0-13.582,3.748a17.58916,17.58916,0,0,0-6.67969,9.38868l-29.24219-2.375a39.9944,39.9944,0,0,1,8.75781-17.99805A42.47783,42.47783,0,0,1,63.43288,95.06918,64.65038,64.65038,0,0,1,87.44264,90.95a73.38258,73.38258,0,0,1,18.22071,2.22656,48.04685,48.04685,0,0,1,15.51172,6.90234,33.77946,33.77946,0,0,1,10.72461,11.98633q3.93311,7.311,3.93359,17.47852v76.89062H105.84889V190.62582h-.89062a31.711,31.711,0,0,1-7.34766,9.38867A33.1288,33.1288,0,0,1,86.552,206.32308,45.035,45.035,0,0,1,71.63405,208.58675Zm9.05469-21.82031a26.29266,26.29266,0,0,0,12.32031-2.7832,21.54717,21.54717,0,0,0,8.38672-7.5332,19.52058,19.52058,0,0,0,3.043-10.76172V153.59066a16.164,16.164,0,0,1-4.04492,1.74414q-2.56056.7793-5.752,1.41016-3.19189.63135-6.38281,1.11328-3.1919.48339-5.78906.85351a39.13722,39.13722,0,0,0-9.72266,2.59766,15.68483,15.68483,0,0,0-6.457,4.78711,11.90885,11.90885,0,0,0-2.30078,7.459q0,6.457,4.71289,9.834Q73.41481,186.76741,80.68874,186.76644Z" fill="#090909"/><path d="M192.01491,54.43441v152H160.39772v-152Z" fill="#090909"/><path d="M268.60573,251.55941q-15.36328,0-26.31055-4.19336-10.94823-4.19385-17.40429-11.39258a34.91588,34.91588,0,0,1-8.38672-16.17968l29.24219-3.9336a19.15824,19.15824,0,0,0,4.23046,6.38281,20.9189,20.9189,0,0,0,7.68164,4.78711,33.06033,33.06033,0,0,0,11.68946,1.81836q10.31543,0,17.0332-5.00976,6.71631-5.00977,6.7168-16.73633V186.24691H291.762a30.05191,30.05191,0,0,1-6.23437,8.98047,31.42984,31.42984,0,0,1-10.6875,6.90234,41.08053,41.08053,0,0,1-15.58594,2.67188,46.36256,46.36256,0,0,1-23.3418-5.97461q-10.50293-5.97363-16.69922-18.332-6.19775-12.35742-6.19726-31.28321,0-19.37109,6.30859-32.35937,6.30762-12.9873,16.81055-19.44531A43.15587,43.15587,0,0,1,259.18,90.95q9.57422,0,16.03125,3.22851a31.742,31.742,0,0,1,10.42773,8.01563,44.307,44.307,0,0,1,6.123,9.38867h1.1875V92.43441H324.344V207.54769q0,14.54591-7.125,24.34375a43.13629,43.13629,0,0,1-19.70508,14.73242Q284.93385,251.55892,268.60573,251.55941Zm.668-70.50781a21.56855,21.56855,0,0,0,12.95117-3.82227,24.11311,24.11311,0,0,0,8.16406-10.98437,46.35757,46.35757,0,0,0,2.85743-17.18164A48.72278,48.72278,0,0,0,290.426,131.659a25.40628,25.40628,0,0,0-8.16406-11.4668,22.68881,22.68881,0,0,0-26.125.11133,25.64757,25.64757,0,0,0-8.08984,11.61524,49.258,49.258,0,0,0-2.7461,17.14453,46.98694,46.98694,0,0,0,2.78321,17.0332,24.126,24.126,0,0,0,8.08984,11.05859A21.52778,21.52778,0,0,0,269.2737,181.0516Z" fill="#090909"/><path d="M401.08522,208.661q-17.29393,0-29.873-7.38476A49.905,49.905,0,0,1,351.804,180.64339q-6.82909-13.248-6.82812-30.76367,0-17.66308,6.82812-30.91211A49.91093,49.91093,0,0,1,371.21218,98.3348q12.58006-7.38428,29.873-7.38476,17.291,0,29.87305,7.38476a49.91707,49.91707,0,0,1,19.4082,20.63281q6.82617,13.248,6.82813,30.91211,0,17.51661-6.82813,30.76367a49.91115,49.91115,0,0,1-19.4082,20.63282Q418.37819,208.662,401.08522,208.661Zm.14844-24.49218a19.54823,19.54823,0,0,0,13.13672-4.49024,27.63117,27.63117,0,0,0,7.97851-12.2832,53.89826,53.89826,0,0,0,2.709-17.73828,53.90236,53.90236,0,0,0-2.709-17.73828,27.90339,27.90339,0,0,0-7.97851-12.32032,19.4545,19.4545,0,0,0-13.13672-4.52734,19.989,19.989,0,0,0-13.32227,4.52734,27.42937,27.42937,0,0,0-8.08984,12.32032,53.85126,53.85126,0,0,0-2.709,17.73828,53.84718,53.84718,0,0,0,2.709,17.73828,27.1666,27.1666,0,0,0,8.08984,12.2832A20.08679,20.08679,0,0,0,401.23366,184.16879Z" fill="#090909"/><path d="M529.33425,208.661q-17.51661,0-30.09571-7.459a49.60729,49.60729,0,0,1-19.29687-20.74414q-6.71778-13.28467-6.7168-30.57813,0-17.51512,6.791-30.76367a50.22379,50.22379,0,0,1,19.334-20.707q12.542-7.459,29.83594-7.459,14.918,0,26.125,5.418a43.67763,43.67763,0,0,1,17.73828,15.21485,44.72128,44.72128,0,0,1,7.19922,23.00781H550.41237a23.32645,23.32645,0,0,0-6.64258-13.76758q-5.38183-5.23242-14.06445-5.23242a21.17523,21.17523,0,0,0-12.80273,3.9707,25.639,25.639,0,0,0-8.498,11.541q-3.04395,7.5703-3.043,18.332,0,10.91016,3.00586,18.55469a25.49887,25.49887,0,0,0,8.498,11.65234,22.54274,22.54274,0,0,0,22.59961,1.78125,19.03468,19.03468,0,0,0,7.19921-6.49414,24.74476,24.74476,0,0,0,3.74805-10.2793h29.83594A46.72911,46.72911,0,0,1,573.16042,187.62a43.20913,43.20913,0,0,1-17.47852,15.47461Q544.5491,208.661,529.33425,208.661Z" fill="#090909"/><path d="M632.20143,54.43441v152H600.58425v-152Z" fill="#090909"/><path d="M708.94069,208.661q-17.294,0-29.87305-7.38476a49.905,49.905,0,0,1-19.4082-20.63282q-6.82909-13.248-6.82812-30.76367,0-17.66308,6.82812-30.91211a49.911,49.911,0,0,1,19.4082-20.63281q12.58008-7.38428,29.87305-7.38476,17.29248,0,29.87305,7.38476a49.91707,49.91707,0,0,1,19.4082,20.63281q6.82764,13.248,6.82813,30.91211,0,17.51661-6.82813,30.76367a49.91115,49.91115,0,0,1-19.4082,20.63282Q726.23366,208.662,708.94069,208.661Zm.14844-24.49218a19.54823,19.54823,0,0,0,13.13672-4.49024,27.623,27.623,0,0,0,7.97851-12.2832,53.87257,53.87257,0,0,0,2.709-17.73828,53.87666,53.87666,0,0,0-2.709-17.73828,27.89507,27.89507,0,0,0-7.97851-12.32032,19.4545,19.4545,0,0,0-13.13672-4.52734,19.989,19.989,0,0,0-13.32227,4.52734,27.42937,27.42937,0,0,0-8.08984,12.32032,53.85126,53.85126,0,0,0-2.709,17.73828,53.84717,53.84717,0,0,0,2.709,17.73828,27.1666,27.1666,0,0,0,8.08984,12.2832A20.08679,20.08679,0,0,0,709.08913,184.16879Z" fill="#090909"/><path d="M858.78737,157.89535V92.43441h31.61719v114H860.04909v-20.707h-1.1875a33.73254,33.73254,0,0,1-12.80273,16.10547q-8.94435,6.08643-21.78321,6.08594a38.41325,38.41325,0,0,1-20.11328-5.19532,35.46614,35.46614,0,0,1-13.54492-14.76953q-4.86181-9.57421-4.93555-22.93359V92.43441h31.61719v66.94531q.07325,10.09425,5.418,15.957,5.34375,5.86377,14.32422,5.86329a22.48375,22.48375,0,0,0,10.6875-2.63477,20.37936,20.37936,0,0,0,8.05273-7.83008A24.32729,24.32729,0,0,0,858.78737,157.89535Z" fill="#090909"/><path d="M957.64479,208.28988a42.672,42.672,0,0,1-23.49023-6.7168q-10.50293-6.71631-16.625-19.8164-6.123-13.09865-6.123-32.17383,0-19.59375,6.3086-32.61914,6.3076-13.0254,16.81054-19.51953A42.97457,42.97457,0,0,1,957.57057,90.95q9.57423,0,15.99414,3.22851a31.84839,31.84839,0,0,1,10.39063,8.01563,41.9562,41.9562,0,0,1,6.04883,9.38867h.96484V54.43441h31.543v152H991.34011V188.1766h-1.33594a40.6187,40.6187,0,0,1-6.27149,9.38867,31.60155,31.60155,0,0,1-10.46484,7.68164A36.284,36.284,0,0,1,957.64479,208.28988Zm10.01953-25.16016a20.24134,20.24134,0,0,0,12.95118-4.19336,26.47446,26.47446,0,0,0,8.16406-11.76367,50.15325,50.15325,0,0,0,2.85742-17.73828,50.12493,50.12493,0,0,0-2.82031-17.66406,25.36185,25.36185,0,0,0-8.16406-11.57813,20.7717,20.7717,0,0,0-12.98829-4.082,20.50458,20.50458,0,0,0-13.13671,4.23047,25.8683,25.8683,0,0,0-8.08985,11.72656,50.37059,50.37059,0,0,0-2.74609,17.36719,50.94428,50.94428,0,0,0,2.7832,17.55273,26.46307,26.46307,0,0,0,8.08984,11.875A20.2302,20.2302,0,0,0,967.66432,183.12972Z" fill="#090909"/></svg>