<svg id="Layer_1" data-name="Layer 1" xmlns="http://www.w3.org/2000/svg" viewBox="0 0 1056.03636 261.41818"><path d="M71.505,208.58675a47.11377,47.11377,0,0,1-19.44531-3.82226A30.72737,30.72737,0,0,1,38.589,193.409q-4.93651-7.53222-4.93554-18.81445,0-9.49952,3.48828-15.957a28.2463,28.2463,0,0,1,9.5-10.39063,46.02956,46.02956,0,0,1,13.69336-5.9375,103.18231,103.18231,0,0,1,16.14257-2.82031q9.94483-1.03857,16.03125-1.9668,6.085-.92724,8.832-2.7832a6.19832,6.19832,0,0,0,2.74609-5.49219v-.44531q0-7.0503-4.416-10.91016-4.41649-3.85839-12.50586-3.85937-8.53564,0-13.582,3.748a17.5892,17.5892,0,0,0-6.67968,9.38868l-29.24219-2.375a39.9943,39.9943,0,0,1,8.75781-17.99805A42.47783,42.47783,0,0,1,63.30383,95.06918,64.65038,64.65038,0,0,1,87.31359,90.95,73.38258,73.38258,0,0,1,105.5343,93.1766a48.0467,48.0467,0,0,1,15.51171,6.90234,33.77927,33.77927,0,0,1,10.72461,11.98633q3.9331,7.311,3.9336,17.47852v76.89062H105.71984V190.62582h-.89062a31.71116,31.71116,0,0,1-7.34766,9.38867A33.1289,33.1289,0,0,1,86.423,206.32308,45.03508,45.03508,0,0,1,71.505,208.58675Zm9.05469-21.82031A26.29266,26.29266,0,0,0,92.88,183.98324a21.54717,21.54717,0,0,0,8.38672-7.5332,19.52058,19.52058,0,0,0,3.043-10.76172V153.59066a16.16391,16.16391,0,0,1-4.04493,1.74414q-2.56054.7793-5.75195,1.41016-3.1919.63135-6.38281,1.11328-3.19189.48339-5.78906.85351a39.13722,39.13722,0,0,0-9.72266,2.59766,15.68483,15.68483,0,0,0-6.457,4.78711,11.90885,11.90885,0,0,0-2.30078,7.459q0,6.457,4.71289,9.834Q73.28576,186.76741,80.55969,186.76644Z" fill="#fff"/><path d="M191.88586,54.43441v152H160.26867v-152Z" fill="#fff"/><path d="M268.47668,251.55941q-15.36328,0-26.31055-4.19336-10.94825-4.19385-17.4043-11.39258a34.916,34.916,0,0,1-8.38671-16.17968l29.24218-3.9336a19.15827,19.15827,0,0,0,4.23047,6.38281,20.9189,20.9189,0,0,0,7.68164,4.78711,33.06029,33.06029,0,0,0,11.68946,1.81836q10.31543,0,17.0332-5.00976,6.71631-5.00977,6.7168-16.73633V186.24691h-1.33594a30.05176,30.05176,0,0,1-6.23438,8.98047,31.42964,31.42964,0,0,1-10.6875,6.90234,41.08044,41.08044,0,0,1-15.58593,2.67188,46.36256,46.36256,0,0,1-23.3418-5.97461q-10.50293-5.97363-16.69922-18.332-6.19776-12.35742-6.19727-31.28321,0-19.37109,6.3086-32.35937,6.30762-12.9873,16.81054-19.44531A43.15593,43.15593,0,0,1,259.0509,90.95q9.57422,0,16.03125,3.22851a31.74212,31.74212,0,0,1,10.42773,8.01563,44.307,44.307,0,0,1,6.123,9.38867h1.1875V92.43441H324.215V207.54769q0,14.54591-7.125,24.34375a43.13629,43.13629,0,0,1-19.70508,14.73242Q284.8048,251.55892,268.47668,251.55941Zm.668-70.50781a21.56855,21.56855,0,0,0,12.95117-3.82227,24.11311,24.11311,0,0,0,8.16406-10.98437,46.35758,46.35758,0,0,0,2.85742-17.18164A48.723,48.723,0,0,0,290.297,131.659a25.40628,25.40628,0,0,0-8.16406-11.4668,22.68881,22.68881,0,0,0-26.125.11133,25.64766,25.64766,0,0,0-8.08985,11.61524,49.25825,49.25825,0,0,0-2.74609,17.14453,46.987,46.987,0,0,0,2.7832,17.0332,24.126,24.126,0,0,0,8.08985,11.05859A21.52776,21.52776,0,0,0,269.14465,181.0516Z" fill="#fff"/><path d="M400.95617,208.661q-17.29395,0-29.873-7.38476a49.905,49.905,0,0,1-19.4082-20.63282q-6.82909-13.248-6.82812-30.76367,0-17.66308,6.82812-30.91211a49.9109,49.9109,0,0,1,19.4082-20.63281q12.58008-7.38428,29.873-7.38476,17.291,0,29.87305,7.38476a49.91707,49.91707,0,0,1,19.4082,20.63281q6.82617,13.248,6.82813,30.91211,0,17.51661-6.82813,30.76367a49.91115,49.91115,0,0,1-19.4082,20.63282Q418.24914,208.662,400.95617,208.661Zm.14844-24.49218a19.54825,19.54825,0,0,0,13.13672-4.49024,27.63117,27.63117,0,0,0,7.97851-12.2832,53.89826,53.89826,0,0,0,2.709-17.73828,53.90236,53.90236,0,0,0-2.709-17.73828,27.90339,27.90339,0,0,0-7.97851-12.32032,19.45451,19.45451,0,0,0-13.13672-4.52734,19.989,19.989,0,0,0-13.32227,4.52734,27.42937,27.42937,0,0,0-8.08984,12.32032,53.85126,53.85126,0,0,0-2.709,17.73828,53.84717,53.84717,0,0,0,2.709,17.73828,27.1666,27.1666,0,0,0,8.08984,12.2832A20.08679,20.08679,0,0,0,401.10461,184.16879Z" fill="#fff"/><path d="M529.20519,208.661q-17.51659,0-30.0957-7.459a49.60723,49.60723,0,0,1-19.29687-20.74414q-6.71778-13.28467-6.7168-30.57813,0-17.51512,6.791-30.76367a50.22382,50.22382,0,0,1,19.334-20.707q12.542-7.459,29.83594-7.459,14.918,0,26.125,5.418A43.67763,43.67763,0,0,1,572.92,111.58285a44.72147,44.72147,0,0,1,7.19922,23.00781H550.28332a23.32651,23.32651,0,0,0-6.64258-13.76758q-5.38184-5.23242-14.06445-5.23242a21.17528,21.17528,0,0,0-12.80274,3.9707,25.639,25.639,0,0,0-8.498,11.541q-3.04395,7.5703-3.043,18.332,0,10.91016,3.00586,18.55469a25.49878,25.49878,0,0,0,8.498,11.65234,22.54274,22.54274,0,0,0,22.59961,1.78125,19.0347,19.0347,0,0,0,7.19922-6.49414,24.74476,24.74476,0,0,0,3.74805-10.2793h29.83594A46.72921,46.72921,0,0,1,573.03137,187.62a43.2092,43.2092,0,0,1-17.47852,15.47461Q544.42,208.661,529.20519,208.661Z" fill="#fff"/><path d="M632.07238,54.43441v152H600.45519v-152Z" fill="#fff"/><path d="M708.81164,208.661q-17.294,0-29.87305-7.38476a49.905,49.905,0,0,1-19.4082-20.63282q-6.82911-13.248-6.82813-30.76367,0-17.66308,6.82813-30.91211a49.9109,49.9109,0,0,1,19.4082-20.63281q12.58008-7.38428,29.87305-7.38476,17.29248,0,29.87305,7.38476a49.9172,49.9172,0,0,1,19.4082,20.63281q6.82764,13.248,6.82812,30.91211,0,17.51661-6.82812,30.76367a49.91128,49.91128,0,0,1-19.4082,20.63282Q726.10461,208.662,708.81164,208.661Zm.14844-24.49218a19.54825,19.54825,0,0,0,13.13672-4.49024,27.623,27.623,0,0,0,7.97851-12.2832,53.87284,53.87284,0,0,0,2.709-17.73828,53.87692,53.87692,0,0,0-2.709-17.73828,27.89507,27.89507,0,0,0-7.97851-12.32032,19.45451,19.45451,0,0,0-13.13672-4.52734,19.98894,19.98894,0,0,0-13.32227,4.52734,27.42937,27.42937,0,0,0-8.08984,12.32032,53.85126,53.85126,0,0,0-2.709,17.73828,53.84717,53.84717,0,0,0,2.709,17.73828,27.1666,27.1666,0,0,0,8.08984,12.2832A20.08675,20.08675,0,0,0,708.96008,184.16879Z" fill="#fff"/><path d="M858.65832,157.89535V92.43441h31.61719v114H859.92v-20.707h-1.1875a33.7325,33.7325,0,0,1-12.80274,16.10547q-8.94434,6.08643-21.7832,6.08594a38.41325,38.41325,0,0,1-20.11328-5.19532,35.46614,35.46614,0,0,1-13.54492-14.76953q-4.86181-9.57421-4.93555-22.93359V92.43441H817.17v66.94531q.07325,10.09425,5.418,15.957,5.34375,5.86377,14.32421,5.86329a22.48369,22.48369,0,0,0,10.6875-2.63477,20.37932,20.37932,0,0,0,8.05274-7.83008A24.32739,24.32739,0,0,0,858.65832,157.89535Z" fill="#fff"/><path d="M957.51574,208.28988a42.672,42.672,0,0,1-23.49023-6.7168q-10.50294-6.71631-16.625-19.8164-6.12306-13.09865-6.12305-32.17383,0-19.59375,6.30859-32.61914,6.30762-13.0254,16.81055-19.51953A42.97457,42.97457,0,0,1,957.44152,90.95q9.57422,0,15.99414,3.22851a31.84839,31.84839,0,0,1,10.39063,8.01563,41.95655,41.95655,0,0,1,6.04883,9.38867H990.84V54.43441h31.543v152H991.21105V188.1766h-1.33593a40.6187,40.6187,0,0,1-6.27149,9.38867,31.60165,31.60165,0,0,1-10.46484,7.68164A36.28405,36.28405,0,0,1,957.51574,208.28988Zm10.01953-25.16016a20.24131,20.24131,0,0,0,12.95117-4.19336,26.47448,26.47448,0,0,0,8.16407-11.76367,50.15347,50.15347,0,0,0,2.85742-17.73828,50.12493,50.12493,0,0,0-2.82031-17.66406,25.36186,25.36186,0,0,0-8.16407-11.57813,20.77169,20.77169,0,0,0-12.98828-4.082,20.50461,20.50461,0,0,0-13.13672,4.23047,25.86828,25.86828,0,0,0-8.08984,11.72656,50.37035,50.37035,0,0,0-2.74609,17.36719,50.94428,50.94428,0,0,0,2.7832,17.55273,26.46307,26.46307,0,0,0,8.08984,11.875A20.2302,20.2302,0,0,0,967.53527,183.12972Z" fill="#fff"/></svg>